<?xml version="1.0" standalone="no"?>
<!DOCTYPE svg PUBLIC "-//W3C//DTD SVG 20010904//EN"
 "http://www.w3.org/TR/2001/REC-SVG-20010904/DTD/svg10.dtd">
<svg version="1.0" xmlns="http://www.w3.org/2000/svg"
 width="2048.000000pt" height="2088.000000pt" viewBox="0 0 2048.000000 2088.000000"
 preserveAspectRatio="xMidYMid meet">

<g transform="translate(0.000000,2088.000000) scale(0.100000,-0.100000)"
fill="#000000" stroke="none">
<path d="M15240 15844 c-117 -31 -193 -96 -338 -283 -179 -232 -488 -521 -774
-724 -313 -221 -794 -458 -1203 -591 -352 -114 -853 -229 -1405 -321 -357 -60
-892 -171 -1160 -241 -191 -50 -577 -181 -764 -259 -265 -110 -574 -274 -791
-418 -1036 -691 -1722 -1770 -1879 -2957 -52 -389 -46 -873 14 -1222 33 -196
93 -440 150 -615 22 -67 40 -126 40 -131 0 -6 -42 -43 -93 -83 -120 -93 -360
-337 -463 -469 -351 -451 -585 -972 -693 -1540 -48 -254 -80 -671 -61 -798 27
-183 147 -330 315 -386 173 -57 360 -13 489 116 108 108 146 217 146 418 0
178 41 468 96 678 79 306 243 646 425 882 77 100 258 290 276 290 6 0 49 -53
96 -119 131 -182 258 -332 417 -495 729 -747 1620 -1176 2685 -1292 305 -33
768 -24 1100 22 818 112 1723 489 2528 1051 271 189 629 495 892 764 431 440
753 886 1008 1399 204 408 367 886 456 1335 86 432 121 795 121 1260 0 216
-21 668 -35 760 -2 17 -7 59 -10 95 -17 206 -94 728 -140 955 -87 430 -130
601 -251 1000 -151 500 -276 841 -493 1345 -119 276 -176 383 -235 442 -125
125 -304 175 -466 132z m45 -1534 c169 -436 346 -1027 434 -1450 59 -283 111
-618 146 -955 23 -220 24 -243 35 -440 41 -758 -51 -1445 -276 -2067 -123
-341 -248 -594 -431 -873 -502 -764 -1227 -1395 -2098 -1825 -682 -337 -1341
-497 -1965 -477 -353 12 -689 68 -1000 169 -662 213 -1227 619 -1653 1185 -42
56 -77 106 -77 112 0 11 148 70 345 137 114 39 900 289 995 316 174 50 761
275 1025 392 490 219 952 503 1310 805 108 91 174 152 361 336 119 116 148
151 173 205 74 158 65 322 -25 472 -97 160 -290 249 -473 218 -117 -20 -194
-65 -303 -177 -212 -220 -364 -352 -584 -508 -201 -144 -368 -242 -629 -370
-427 -211 -888 -384 -1595 -599 -420 -128 -695 -222 -904 -310 -60 -25 -110
-45 -112 -43 -6 6 -64 227 -78 297 -107 535 -73 1119 94 1620 222 665 607
1190 1196 1633 452 339 999 564 1794 737 165 35 466 91 890 166 284 49 698
136 908 190 856 219 1628 605 2207 1103 61 52 132 116 160 142 27 27 53 45 56
41 4 -4 37 -86 74 -182z"/>
</g>
</svg>
